<svg xmlns="http://www.w3.org/2000/svg" width="900" height="600" viewBox="0 0 900 600">
<rect width="100%" height="100%" fill="white"/>
<text x="450.00" y="28" text-anchor="middle" font-size="22" font-family="Arial">eps005 explicit 20 cycles: Delta SDV1</text>
<line x1="95" y1="520" x2="730" y2="520" stroke="black" stroke-width="2"/>
<line x1="95" y1="50" x2="95" y2="520" stroke="black" stroke-width="2"/>
<line x1="95.00" y1="50" x2="95.00" y2="520" stroke="#dddddd" stroke-width="1"/>
<text x="95.00" y="545" text-anchor="middle" font-size="13" font-family="Arial">0.43</text>
<line x1="95" y1="520.00" x2="730" y2="520.00" stroke="#dddddd" stroke-width="1"/>
<text x="85" y="525.00" text-anchor="end" font-size="13" font-family="Arial">0.005518</text>
<line x1="222.00" y1="50" x2="222.00" y2="520" stroke="#dddddd" stroke-width="1"/>
<text x="222.00" y="545" text-anchor="middle" font-size="13" font-family="Arial">4.458</text>
<line x1="95" y1="426.00" x2="730" y2="426.00" stroke="#dddddd" stroke-width="1"/>
<text x="85" y="431.00" text-anchor="end" font-size="13" font-family="Arial">0.005868</text>
<line x1="349.00" y1="50" x2="349.00" y2="520" stroke="#dddddd" stroke-width="1"/>
<text x="349.00" y="545" text-anchor="middle" font-size="13" font-family="Arial">8.486</text>
<line x1="95" y1="332.00" x2="730" y2="332.00" stroke="#dddddd" stroke-width="1"/>
<text x="85" y="337.00" text-anchor="end" font-size="13" font-family="Arial">0.006219</text>
<line x1="476.00" y1="50" x2="476.00" y2="520" stroke="#dddddd" stroke-width="1"/>
<text x="476.00" y="545" text-anchor="middle" font-size="13" font-family="Arial">12.51</text>
<line x1="95" y1="238.00" x2="730" y2="238.00" stroke="#dddddd" stroke-width="1"/>
<text x="85" y="243.00" text-anchor="end" font-size="13" font-family="Arial">0.006569</text>
<line x1="603.00" y1="50" x2="603.00" y2="520" stroke="#dddddd" stroke-width="1"/>
<text x="603.00" y="545" text-anchor="middle" font-size="13" font-family="Arial">16.54</text>
<line x1="95" y1="144.00" x2="730" y2="144.00" stroke="#dddddd" stroke-width="1"/>
<text x="85" y="149.00" text-anchor="end" font-size="13" font-family="Arial">0.006919</text>
<line x1="730.00" y1="50" x2="730.00" y2="520" stroke="#dddddd" stroke-width="1"/>
<text x="730.00" y="545" text-anchor="middle" font-size="13" font-family="Arial">20.57</text>
<line x1="95" y1="50.00" x2="730" y2="50.00" stroke="#dddddd" stroke-width="1"/>
<text x="85" y="55.00" text-anchor="end" font-size="13" font-family="Arial">0.00727</text>
<polyline points="112.97,498.64 144.50,74.12 176.03,71.36 207.56,71.60 239.09,71.91 270.62,72.22 302.15,72.53 333.68,72.83 365.21,73.14 396.74,73.45 428.26,73.76 459.79,74.07 491.32,74.37 522.85,74.68 554.38,74.99 585.91,75.30 617.44,75.60 648.97,75.91 680.50,76.22 712.03,76.52" fill="none" stroke="black" stroke-width="2.5"/>
<line x1="755" y1="58" x2="785" y2="58" stroke="black" stroke-width="3"/>
<text x="795" y="63" font-size="14" font-family="Arial">explicit Delta SDV1</text>
<text x="412.50" y="575" text-anchor="middle" font-size="18" font-family="Arial">Cycle</text>
<text x="25" y="285.00" text-anchor="middle" font-size="18" font-family="Arial" transform="rotate(-90 25,285.00)">Delta SDV1</text>
</svg>