<svg xmlns="http://www.w3.org/2000/svg" width="900" height="600" viewBox="0 0 900 600">
<rect width="100%" height="100%" fill="white"/>
<text x="450.0" y="28" text-anchor="middle" font-size="22" font-family="Arial">eps005 10 cycles: cycle-end SDV1</text>
<line x1="95" y1="520" x2="750" y2="520" stroke="black" stroke-width="2"/>
<line x1="95" y1="50" x2="95" y2="520" stroke="black" stroke-width="2"/>
<line x1="95.00" y1="50" x2="95.00" y2="520" stroke="#dddddd" stroke-width="1"/>
<text x="95.00" y="545" text-anchor="middle" font-size="13" font-family="Arial">0.73</text>
<line x1="95" y1="520.00" x2="750" y2="520.00" stroke="#dddddd" stroke-width="1"/>
<text x="85" y="525.00" text-anchor="end" font-size="13" font-family="Arial">0.002364</text>
<line x1="226.00" y1="50" x2="226.00" y2="520" stroke="#dddddd" stroke-width="1"/>
<text x="226.00" y="545" text-anchor="middle" font-size="13" font-family="Arial">2.638</text>
<line x1="95" y1="426.00" x2="750" y2="426.00" stroke="#dddddd" stroke-width="1"/>
<text x="85" y="431.00" text-anchor="end" font-size="13" font-family="Arial">0.01659</text>
<line x1="357.00" y1="50" x2="357.00" y2="520" stroke="#dddddd" stroke-width="1"/>
<text x="357.00" y="545" text-anchor="middle" font-size="13" font-family="Arial">4.546</text>
<line x1="95" y1="332.00" x2="750" y2="332.00" stroke="#dddddd" stroke-width="1"/>
<text x="85" y="337.00" text-anchor="end" font-size="13" font-family="Arial">0.03082</text>
<line x1="488.00" y1="50" x2="488.00" y2="520" stroke="#dddddd" stroke-width="1"/>
<text x="488.00" y="545" text-anchor="middle" font-size="13" font-family="Arial">6.454</text>
<line x1="95" y1="238.00" x2="750" y2="238.00" stroke="#dddddd" stroke-width="1"/>
<text x="85" y="243.00" text-anchor="end" font-size="13" font-family="Arial">0.04505</text>
<line x1="619.00" y1="50" x2="619.00" y2="520" stroke="#dddddd" stroke-width="1"/>
<text x="619.00" y="545" text-anchor="middle" font-size="13" font-family="Arial">8.362</text>
<line x1="95" y1="144.00" x2="750" y2="144.00" stroke="#dddddd" stroke-width="1"/>
<text x="85" y="149.00" text-anchor="end" font-size="13" font-family="Arial">0.05927</text>
<line x1="750.00" y1="50" x2="750.00" y2="520" stroke="#dddddd" stroke-width="1"/>
<text x="750.00" y="545" text-anchor="middle" font-size="13" font-family="Arial">10.27</text>
<line x1="95" y1="50.00" x2="750" y2="50.00" stroke="#dddddd" stroke-width="1"/>
<text x="85" y="55.00" text-anchor="end" font-size="13" font-family="Arial">0.0735</text>
<polyline points="113.54,498.64 182.20,451.20 250.85,403.70 319.51,356.20 388.17,308.71 456.83,261.22 525.49,213.75 594.15,166.28 662.80,118.82 731.46,71.36" fill="none" stroke="black" stroke-width="2.5"/>
<line x1="775" y1="58" x2="805" y2="58" stroke="black" stroke-width="3"/>
<text x="815" y="63" font-size="14" font-family="Arial">cycle end</text>
<text x="422.5" y="575" text-anchor="middle" font-size="18" font-family="Arial">Cycle</text>
<text x="25" y="285.0" text-anchor="middle" font-size="18" font-family="Arial" transform="rotate(-90 25,285.0)">Cycle-end SDV1</text>
</svg>