<svg xmlns="http://www.w3.org/2000/svg" width="920" height="520" viewBox="0 0 920 520">
<rect width="100%" height="100%" fill="white"/>
<text x="460.0" y="32" text-anchor="middle" font-family="Arial" font-size="20">B1 best normalized error vs target</text>
<line x1="70" y1="450" x2="850" y2="450" stroke="#333"/>
<line x1="70" y1="70" x2="70" y2="450" stroke="#333"/>
<text x="460.0" y="502" text-anchor="middle" font-family="Arial" font-size="14">target cycle</text>
<text x="18" y="260.0" transform="rotate(-90 18,260.0)" text-anchor="middle" font-family="Arial" font-size="14">normalized error percent</text>
<polyline points="70.00,443.34 71.25,390.38 72.81,450.00 85.29,449.97 100.90,449.67 225.75,434.07 381.81,385.29 693.94,168.73 850.00,70.00" fill="none" stroke="#1f6f8b" stroke-width="2"/>
<circle cx="70.00" cy="443.34" r="3" fill="#1f6f8b" />
<circle cx="71.25" cy="390.38" r="3" fill="#1f6f8b" />
<circle cx="72.81" cy="450.00" r="3" fill="#1f6f8b" />
<circle cx="85.29" cy="449.97" r="3" fill="#1f6f8b" />
<circle cx="100.90" cy="449.67" r="3" fill="#1f6f8b" />
<circle cx="225.75" cy="434.07" r="3" fill="#1f6f8b" />
<circle cx="381.81" cy="385.29" r="3" fill="#1f6f8b" />
<circle cx="693.94" cy="168.73" r="3" fill="#1f6f8b" />
<circle cx="850.00" cy="70.00" r="3" fill="#1f6f8b" />
</svg>
