<svg xmlns="http://www.w3.org/2000/svg" width="1050" height="720" viewBox="0 0 1050 720">

<defs>
  <marker id="arrow-red" markerWidth="10" markerHeight="10" refX="8" refY="3" orient="auto" markerUnits="strokeWidth">
    <path d="M0,0 L0,6 L9,3 z" fill="#d62728"/>
  </marker>
  <marker id="arrow-black" markerWidth="10" markerHeight="10" refX="8" refY="3" orient="auto" markerUnits="strokeWidth">
    <path d="M0,0 L0,6 L9,3 z" fill="#333"/>
  </marker>
</defs>

<rect width="100%" height="100%" fill="white"/>
<text x="525" y="42" text-anchor="middle" font-size="26" font-family="Arial" font-weight="bold">Actual Abaqus C3D8 geometry extracted from input deck</text>
<polygon points="109.55,315.77 109.55,257.21 60.00,291.44 60.00,350.00" fill="#e8f4ff" stroke="#1f4e79" stroke-width="2.2"/>
<polygon points="109.55,257.21 560.00,257.21 560.00,315.77 109.55,315.77" fill="#d9ecff" stroke="#1f4e79" stroke-width="2.2"/>
<polygon points="109.55,257.21 560.00,257.21 510.45,291.44 60.00,291.44" fill="#cce4fa" stroke="#1f4e79" stroke-width="2.2"/>
<polygon points="60.00,291.44 510.45,291.44 510.45,350.00 60.00,350.00" fill="#bdd9f2" stroke="#1f4e79" stroke-width="2.2"/>
<polygon points="560.00,315.77 109.55,315.77 60.00,350.00 510.45,350.00" fill="#d7e9fa" stroke="#1f4e79" stroke-width="2.2"/>
<polygon points="560.00,257.21 560.00,315.77 510.45,350.00 510.45,291.44" fill="#eef7ff" stroke="#1f4e79" stroke-width="2.2"/>
<line x1="109.55" y1="257.21" x2="560.00" y2="257.21" stroke="#1f4e79" stroke-width="2.4"/>
<line x1="560.00" y1="257.21" x2="560.00" y2="315.77" stroke="#1f4e79" stroke-width="2.4"/>
<line x1="560.00" y1="315.77" x2="109.55" y2="315.77" stroke="#1f4e79" stroke-width="2.4"/>
<line x1="109.55" y1="315.77" x2="109.55" y2="257.21" stroke="#1f4e79" stroke-width="2.4"/>
<line x1="60.00" y1="291.44" x2="510.45" y2="291.44" stroke="#1f4e79" stroke-width="2.4"/>
<line x1="510.45" y1="291.44" x2="510.45" y2="350.00" stroke="#1f4e79" stroke-width="2.4"/>
<line x1="510.45" y1="350.00" x2="60.00" y2="350.00" stroke="#1f4e79" stroke-width="2.4"/>
<line x1="60.00" y1="350.00" x2="60.00" y2="291.44" stroke="#1f4e79" stroke-width="2.4"/>
<line x1="109.55" y1="257.21" x2="60.00" y2="291.44" stroke="#1f4e79" stroke-width="2.4"/>
<line x1="560.00" y1="257.21" x2="510.45" y2="291.44" stroke="#1f4e79" stroke-width="2.4"/>
<line x1="560.00" y1="315.77" x2="510.45" y2="350.00" stroke="#1f4e79" stroke-width="2.4"/>
<line x1="109.55" y1="315.77" x2="60.00" y2="350.00" stroke="#1f4e79" stroke-width="2.4"/>
<circle cx="109.55" cy="257.21" r="5" fill="#173f5f"/>
<text x="117.55" y="250.21" font-size="14" font-family="Arial" fill="#173f5f">N1</text>
<circle cx="560.00" cy="257.21" r="5" fill="#173f5f"/>
<text x="568.00" y="250.21" font-size="14" font-family="Arial" fill="#173f5f">N2</text>
<circle cx="560.00" cy="315.77" r="5" fill="#173f5f"/>
<text x="568.00" y="308.77" font-size="14" font-family="Arial" fill="#173f5f">N3</text>
<circle cx="109.55" cy="315.77" r="5" fill="#173f5f"/>
<text x="117.55" y="308.77" font-size="14" font-family="Arial" fill="#173f5f">N4</text>
<circle cx="60.00" cy="291.44" r="5" fill="#173f5f"/>
<text x="68.00" y="284.44" font-size="14" font-family="Arial" fill="#173f5f">N5</text>
<circle cx="510.45" cy="291.44" r="5" fill="#173f5f"/>
<text x="518.45" y="284.44" font-size="14" font-family="Arial" fill="#173f5f">N6</text>
<circle cx="510.45" cy="350.00" r="5" fill="#173f5f"/>
<text x="518.45" y="343.00" font-size="14" font-family="Arial" fill="#173f5f">N7</text>
<circle cx="60.00" cy="350.00" r="5" fill="#173f5f"/>
<text x="68.00" y="343.00" font-size="14" font-family="Arial" fill="#173f5f">N8</text>
<text x="690" y="110" font-size="19" font-family="Arial" font-weight="bold">Extracted node coordinates [mm]</text>
<text x="690" y="138" font-size="15" font-family="Consolas">node    x      y      z</text>
<text x="690" y="158" font-size="15" font-family="Consolas">   1   0.00   0.00   0.00</text>
<text x="690" y="178" font-size="15" font-family="Consolas">   2  10.00   0.00   0.00</text>
<text x="690" y="198" font-size="15" font-family="Consolas">   3  10.00   2.00   0.00</text>
<text x="690" y="218" font-size="15" font-family="Consolas">   4   0.00   2.00   0.00</text>
<text x="690" y="238" font-size="15" font-family="Consolas">   5   0.00   0.00   2.00</text>
<text x="690" y="258" font-size="15" font-family="Consolas">   6  10.00   0.00   2.00</text>
<text x="690" y="278" font-size="15" font-family="Consolas">   7  10.00   2.00   2.00</text>
<text x="690" y="298" font-size="15" font-family="Consolas">   8   0.00   2.00   2.00</text>
<text x="310" y="520" text-anchor="middle" font-size="18" font-family="Arial">Element type: C3D8, single brick element</text>
<text x="310" y="550" text-anchor="middle" font-size="18" font-family="Arial">Dimensions: 10 mm × 2 mm × 2 mm, cross-section = 4 mm²</text>
<text x="310" y="580" text-anchor="middle" font-size="18" font-family="Arial">LEFT_FACE nodes: 1, 4, 5, 8; RIGHT_FACE nodes: 2, 3, 6, 7</text>
<text x="310" y="610" text-anchor="middle" font-size="18" font-family="Arial">Cyclic displacement on RIGHT_FACE: U1 amplitude = ±0.05 mm</text>
<line x1="720" y1="570" x2="970" y2="570" stroke="#333" stroke-width="1.8"/>
<line x1="720" y1="520" x2="720" y2="620" stroke="#333" stroke-width="1.8"/>
<polyline points="720,570 782,525 845,570 907,615 970,570" fill="none" stroke="#d62728" stroke-width="3"/>
<text x="845" y="655" text-anchor="middle" font-size="16" font-family="Arial">one cycle: 0 → +1 → 0 → -1 → 0</text>
<text x="845" y="505" text-anchor="middle" font-size="18" font-family="Arial" font-weight="bold">Cyclic amplitude shape</text>
</svg>